<svg width="1035" height="410" viewBox="0 0 1035 410" fill="none" xmlns="http://www.w3.org/2000/svg">
<path fill-rule="evenodd" clip-rule="evenodd" d="M67.0256 64.9336H0.966797V114.198H67.0256V64.9336ZM66.4658 136.591H0.966797V310.135H66.4658V136.591Z" fill="#005490"/>
<path fill-rule="evenodd" clip-rule="evenodd" d="M306.625 30.7821C302.146 27.4232 295.988 28.5428 292.629 33.0214L263.518 72.2088C262.959 72.7687 262.959 73.3285 262.399 73.8883H166.11C166.11 73.3285 165.55 73.3285 165.55 72.7687L136.999 33.0214C133.64 28.5428 127.482 27.4232 123.003 30.7821C118.525 34.1411 117.405 40.2991 120.764 44.7776L141.477 73.8883H100.051V218.882H163.87H280.873H337.974C337.974 218.882 367.645 180.814 346.372 122.593C334.056 89.0034 299.347 77.807 285.911 75.0079L308.864 45.3375C312.223 40.8589 311.103 34.1411 306.625 30.7821ZM164.43 175.776V125.392H261.279C261.279 125.392 280.313 124.272 280.313 150.024C280.313 175.776 260.719 175.776 260.719 175.776H164.43V175.776ZM163.31 251.351V309.573H100.051V236.236H318.941L345.252 309.573H274.155L250.083 251.351H163.31V251.351Z" fill="black"/>
<path fill-rule="evenodd" clip-rule="evenodd" d="M823.905 310.695H912.356C980.094 310.695 1034.96 255.832 1034.96 188.094C1034.96 120.356 980.094 65.4932 912.356 65.4932H793.674H773.521C764.004 65.4932 756.166 73.3306 756.166 82.8476V293.9C756.166 303.417 764.004 311.254 773.521 311.254H823.905V310.695ZM822.225 241.837C822.225 243.516 823.905 245.196 825.584 245.196H911.796C943.706 245.196 969.458 219.444 969.458 187.534C969.458 155.624 943.706 129.873 911.796 129.873H824.464C822.785 129.873 821.665 130.992 821.665 132.672V241.837H822.225Z" fill="#005490"/>
<path d="M719.214 65.4932H653.715V309.575H719.214V65.4932Z" fill="#005490"/>
<path d="M585.978 165.143C585.978 153.386 589.337 141.63 594.935 131.553C601.093 121.477 608.371 110.28 618.447 104.122C611.73 95.1651 604.452 88.4473 594.935 82.8491C584.858 77.2509 573.662 76.1312 562.465 75.5714C538.393 73.3321 515.44 89.5669 503.124 89.5669C490.808 89.5669 471.774 75.5714 451.621 76.1312C438.745 76.6911 425.869 80.6098 414.673 87.3276C403.476 94.0455 394.519 103.562 387.801 115.319C360.37 162.903 380.524 232.881 407.395 271.509C420.831 290.542 435.946 311.256 456.099 310.696C475.693 310.136 483.531 298.38 507.043 298.38C530.556 298.38 537.833 310.696 558.547 310.696C579.82 310.136 594.375 292.222 607.251 273.188C616.768 259.752 624.046 243.518 628.524 227.843C616.208 222.804 605.012 214.967 597.174 203.77C589.897 191.454 585.978 178.578 585.978 165.143Z" fill="black"/>
<path d="M546.795 50.3767C558.551 36.3812 564.149 19.0268 562.47 0.552734C544.555 2.2322 528.32 10.6295 516.564 24.0652C510.966 30.783 506.487 38.0607 503.688 46.458C500.889 54.8553 499.77 63.2526 500.329 72.2097C509.287 72.2097 517.684 70.5303 526.081 66.6115C533.919 62.6928 541.196 57.0946 546.795 50.3767Z" fill="black"/>
<path d="M54.1397 404.744C52.4602 406.423 50.7808 407.543 49.1013 408.663C47.4219 409.782 45.1826 409.782 42.9433 409.782C40.1442 409.782 37.3451 409.222 34.546 407.543C31.7469 406.423 28.9478 403.624 25.5889 400.265C21.6701 399.706 17.7514 398.586 14.3924 396.906C11.0335 394.667 8.79424 391.868 6.55496 389.069C4.8755 385.71 3.75586 381.791 3.75586 377.873C3.75586 373.394 4.8755 369.475 7.11478 366.116C9.35406 362.757 12.1532 359.958 15.5121 357.719C19.4308 355.48 23.3496 354.92 27.8281 354.92C32.3067 354.92 36.2254 356.04 40.1442 357.719C44.0629 359.398 46.862 362.198 48.5415 366.116C50.7808 369.475 51.9004 373.394 51.9004 377.873C51.9004 381.231 51.3406 384.59 49.6611 387.389C48.5415 390.189 46.3022 392.988 44.0629 395.227C41.8236 397.466 38.4647 398.586 35.1058 399.706C36.2254 400.825 37.3451 401.945 38.4647 402.505C39.5844 403.624 41.2638 403.624 42.3835 403.624C45.1826 403.624 47.9817 402.505 50.221 400.265L54.1397 404.744ZM12.1532 378.432C12.1532 381.231 12.713 384.031 14.3924 386.27C15.5121 388.509 17.7514 390.748 19.9907 391.868C22.2299 392.988 25.029 394.107 27.8281 394.107C30.6272 394.107 33.4263 393.548 35.6656 391.868C37.9049 390.748 40.1442 388.509 41.2638 386.27C42.3835 384.031 43.5031 381.231 43.5031 378.432C43.5031 375.633 42.9433 372.834 41.2638 370.595C40.1442 368.356 37.9049 366.116 35.6656 364.997C33.4263 363.877 30.6272 362.757 27.8281 362.757C25.029 362.757 22.2299 363.317 19.9907 364.997C17.7514 366.116 15.5121 368.356 14.3924 370.595C12.713 372.274 12.1532 375.073 12.1532 378.432Z" fill="black"/>
<path d="M107.33 400.824C101.172 400.824 96.1339 399.144 92.775 395.786C89.416 392.427 87.7366 387.388 87.7366 380.67V355.479H96.1339V380.111C96.1339 389.068 100.053 392.986 107.33 392.986C114.608 392.986 118.527 388.508 118.527 380.111V355.479H126.924V381.23C126.924 387.948 125.245 392.427 121.886 396.345C118.527 399.144 113.488 400.824 107.33 400.824Z" fill="black"/>
<path d="M194.661 390.187H172.268L167.79 400.264H159.393L179.546 355.479H187.943L208.097 400.264H199.7L194.661 390.187ZM191.862 383.47L183.465 364.436L175.068 384.029H191.862V383.47Z" fill="black"/>
<path d="M241.131 356.042H249.528V393.55H273.041V400.268H241.691V356.042H241.131Z" fill="black"/>
<path d="M307.197 356.042H315.595V400.828H307.197V356.042Z" fill="black"/>
<path d="M364.858 362.76H350.303V356.042H387.811V362.76H373.255V400.268H364.858V362.76Z" fill="black"/>
<path d="M440.431 384.589V400.264H432.034V384.589L414.68 355.479H423.637L436.513 377.312L449.948 355.479H458.346L440.431 384.589Z" fill="black"/>
<path d="M577.586 400.264V370.594L563.03 395.226H559.112L544.556 371.153V400.264H536.719V355.479H543.437L561.351 385.149L578.705 355.479H585.423V400.264H577.586V400.264Z" fill="black"/>
<path d="M654.275 390.187H631.882L627.403 400.264H619.006L639.159 355.479H647.557L667.71 400.264H659.313L654.275 390.187ZM651.475 383.47L643.078 363.876L634.681 383.47H651.475Z" fill="black"/>
<path d="M708.024 362.76H693.469V356.042H730.977V362.76H716.421V400.268H708.024V362.76V362.76Z" fill="black"/>
<path d="M774.639 362.76H760.084V356.042H797.592V362.76H783.037V400.268H774.639V362.76Z" fill="black"/>
<path d="M865.333 393.546V400.264H831.744V355.479H864.214V362.196H840.141V373.953H861.415V381.23H840.141V393.546H865.333Z" fill="black"/>
<path d="M931.388 400.264L922.431 387.388C921.871 387.388 921.311 387.388 920.751 387.388H910.675V400.264H902.277V355.479H920.751C924.67 355.479 928.029 356.038 930.828 357.158C933.627 358.278 935.867 360.517 937.546 362.756C939.226 364.995 939.785 367.795 939.785 371.153C939.785 374.512 939.226 377.311 937.546 379.551C935.867 381.79 933.627 384.029 930.828 385.149L940.905 399.704H931.388V400.264ZM931.388 371.713C931.388 368.914 930.268 366.675 928.589 364.995C926.909 363.316 924.11 362.756 920.192 362.756H910.675V380.67H920.192C923.551 380.67 926.35 380.111 928.589 378.431C930.268 376.752 931.388 374.512 931.388 371.713Z" fill="black"/>
<path d="M990.723 400.828C987.364 400.828 984.005 400.269 980.646 399.149C977.287 398.029 975.048 396.91 972.809 395.23L975.608 389.072C977.287 390.752 979.526 391.871 982.326 392.431C985.125 393.551 987.924 393.551 990.163 393.551C993.522 393.551 995.761 392.991 997.441 391.871C999.12 390.752 999.68 389.632 999.68 387.952C999.68 386.833 999.12 385.713 998.56 384.594C997.441 383.474 996.321 382.914 995.201 382.354C994.082 381.794 991.842 381.235 989.603 380.675C986.244 380.115 983.445 378.995 981.206 378.436C978.967 377.876 977.287 376.196 975.608 374.517C973.928 372.837 973.368 370.598 973.368 367.799C973.368 365.56 973.928 363.32 975.608 361.081C976.727 358.842 978.967 357.162 981.766 356.043C984.565 354.923 987.924 354.363 991.842 354.363C994.642 354.363 997.441 354.923 999.68 355.483C1002.48 356.043 1004.72 357.162 1006.4 358.282L1003.6 364.44C1001.92 363.32 999.68 362.201 997.441 361.641C995.201 361.081 993.522 360.521 991.283 360.521C987.924 360.521 985.684 361.081 984.005 362.201C982.326 363.32 981.766 365 981.766 366.679C981.766 367.799 982.325 368.919 982.885 370.038C984.005 370.598 985.125 371.718 986.244 371.718C987.364 371.718 989.603 372.837 991.842 373.397C995.201 373.957 998 375.077 1000.24 375.636C1002.48 376.196 1004.16 377.876 1005.84 379.555C1007.52 381.235 1008.08 383.474 1008.08 386.273C1008.08 388.512 1007.52 390.752 1005.84 392.991C1004.72 395.23 1002.48 396.35 999.68 398.029C996.881 399.709 994.642 400.828 990.723 400.828Z" fill="black"/>
</svg>
