<svg width="254" height="311" viewBox="0 0 254 311" fill="none" xmlns="http://www.w3.org/2000/svg">
<path d="M211.261 164.59C211.261 152.833 214.62 141.077 220.218 131C226.376 120.924 233.654 109.727 243.73 103.569C237.013 94.6124 229.735 87.8946 220.218 82.2964C210.141 76.6982 198.945 75.5785 187.748 75.0187C163.676 72.7794 140.723 89.0142 128.407 89.0142C116.091 89.0142 97.0573 75.0187 76.9043 75.5785C64.0283 76.1384 51.1523 80.0571 39.9563 86.7749C28.7593 93.4928 19.8023 103.009 13.0843 114.766C-14.3467 162.35 5.80733 232.328 32.6783 270.956C46.1143 289.989 61.2293 310.703 81.3823 310.143C100.976 309.583 108.814 297.827 132.326 297.827C155.839 297.827 163.116 310.143 183.83 310.143C205.103 309.583 219.658 291.669 232.534 272.635C242.051 259.199 249.329 242.965 253.807 227.29C241.491 222.251 230.295 214.414 222.457 203.217C215.18 190.901 211.261 178.025 211.261 164.59Z" fill="white"/>
<path d="M172.078 49.824C183.834 35.8285 189.432 18.4741 187.753 0C169.838 1.67947 153.603 10.0768 141.847 23.5125C136.249 30.2303 131.77 37.508 128.971 45.9053C126.172 54.3026 125.053 62.6999 125.612 71.657C134.57 71.657 142.967 69.9776 151.364 66.0588C159.202 62.1401 166.479 56.5419 172.078 49.824Z" fill="white"/>
</svg>
