<svg width="254" height="281" viewBox="0 0 254 281" fill="none" xmlns="http://www.w3.org/2000/svg">
<path fill-rule="evenodd" clip-rule="evenodd" d="M206.574 1.95302C202.095 -1.40588 195.937 -0.286279 192.578 4.19232L163.467 43.3797C162.908 43.9396 162.908 44.4994 162.348 45.0592H66.059C66.059 44.4994 65.499 44.4994 65.499 43.9396L36.948 4.19232C33.589 -0.286279 27.431 -1.40588 22.952 1.95302C18.474 5.31202 17.354 11.47 20.713 15.9485L41.426 45.0592H0V190.053H63.819H180.822H237.923C237.923 190.053 267.594 151.985 246.321 93.7639C234.005 60.1743 199.296 48.9779 185.86 46.1788L208.813 16.5084C212.172 12.0298 211.052 5.31202 206.574 1.95302ZM64.379 146.947V96.5629H161.228C161.228 96.5629 180.262 95.4429 180.262 121.195C180.262 146.947 160.668 146.947 160.668 146.947H64.379ZM63.259 222.522V280.744H0V207.407H218.89L245.201 280.744H174.104L150.032 222.522H63.259Z" fill="white"/>
</svg>
